<mxfile host="Electron" agent="Mozilla/5.0 (Windows NT 10.0; Win64; x64) AppleWebKit/537.36 (KHTML, like Gecko) draw.io/24.7.17 Chrome/128.0.6613.36 Electron/32.0.1 Safari/537.36" version="24.7.17">
  <diagram name="Seite-1" id="ERUnmVnq5Nm7MtqkxeyB">
    <mxGraphModel dx="1098" dy="803" grid="1" gridSize="10" guides="1" tooltips="1" connect="1" arrows="1" fold="1" page="1" pageScale="1" pageWidth="827" pageHeight="1169" math="0" shadow="0">
      <root>
        <mxCell id="0" />
        <mxCell id="1" parent="0" />
        <mxCell id="obq_eQJdy4OPPNVjdauc-1" value="&lt;div&gt;@startuml&lt;/div&gt;&lt;div&gt;class LoggingMixin&lt;/div&gt;&lt;div&gt;&lt;br&gt;&lt;/div&gt;&lt;div&gt;class LanguageProcessor {&lt;/div&gt;&lt;div&gt;&amp;nbsp; &amp;nbsp; - language: str&lt;/div&gt;&lt;div&gt;&amp;nbsp; &amp;nbsp; - samples: MyDataFrame&lt;/div&gt;&lt;div&gt;&amp;nbsp; &amp;nbsp; + __init__(language: str, samples: MyDataFrame)&lt;/div&gt;&lt;div&gt;&amp;nbsp; &amp;nbsp; + process_language(): None&lt;/div&gt;&lt;div&gt;}&lt;/div&gt;&lt;div&gt;&lt;br&gt;&lt;/div&gt;&lt;div&gt;class LanguageFinishedException&lt;/div&gt;&lt;div&gt;&lt;br&gt;&lt;/div&gt;&lt;div&gt;class MyDataFrame&lt;/div&gt;&lt;div&gt;&lt;br&gt;&lt;/div&gt;&lt;div&gt;class BatchProcessor {&lt;/div&gt;&lt;div&gt;&amp;nbsp; &amp;nbsp; + __init__(language: str, samples: MyDataFrame)&lt;/div&gt;&lt;div&gt;&amp;nbsp; &amp;nbsp; + process_batches(): None&lt;/div&gt;&lt;div&gt;}&lt;/div&gt;&lt;div&gt;&lt;br&gt;&lt;/div&gt;&lt;div&gt;LoggingMixin &amp;lt;|-- LanguageProcessor&lt;/div&gt;&lt;div&gt;LanguageProcessor ..&amp;gt; LanguageFinishedException : &quot;handles&quot;&lt;/div&gt;&lt;div&gt;LanguageProcessor ..&amp;gt; MyDataFrame : &quot;uses&quot;&lt;/div&gt;&lt;div&gt;LanguageProcessor ..&amp;gt; BatchProcessor : &quot;uses&quot;&lt;/div&gt;&lt;div&gt;@enduml&lt;/div&gt;" style="text;html=1;align=center;verticalAlign=middle;whiteSpace=wrap;rounded=0;" vertex="1" parent="1">
          <mxGeometry x="380" y="400" width="60" height="30" as="geometry" />
        </mxCell>
      </root>
    </mxGraphModel>
  </diagram>
</mxfile>
